<svg width="20" height="20" viewBox="0 0 20 20" fill="none" xmlns="http://www.w3.org/2000/svg">
<path d="M17.0798 3.19387C16.0032 1.83909 14.5417 0.801224 12.886 0.293073C11.1886 -0.227971 9.24845 0.0122362 7.57188 0.495142C4.23694 1.45597 1.68188 4.11493 0.784224 7.44933C0.444446 8.71114 0.37597 9.96722 0.537408 11.1833C0.537408 11.1883 0.535457 11.1922 0.535783 11.1975C0.558319 11.469 0.60805 11.7253 0.674793 11.9722C1.0124 13.5138 1.72371 14.9761 2.74467 16.2828C4.50835 18.5401 7.54457 20.4468 10.4849 19.7561C10.4832 19.9 10.5966 20.045 10.772 19.9868C14.2853 18.8228 17.5187 16.8161 18.93 13.243C20.2776 9.83222 19.3045 5.99303 17.0798 3.19387ZM0.935694 11.0259C0.90579 10.7694 0.887046 10.5123 0.880653 10.2551C0.884228 10.2808 0.888021 10.3065 0.891921 10.3321C0.906548 10.5724 0.932226 10.8101 0.962889 11.0458C0.954113 11.0388 0.944578 11.0326 0.935694 11.0259ZM1.93401 9.82073C1.92307 9.85919 1.91191 9.89744 1.90053 9.93569C1.89739 9.86028 1.89403 9.78487 1.89338 9.70924C1.90768 9.65929 1.92166 9.60935 1.93563 9.55929C1.93401 9.6464 1.93314 9.73351 1.93401 9.82073ZM9.6528 18.2495C9.50762 18.2206 9.36243 18.1919 9.21724 18.1636C9.36341 18.1762 9.50946 18.1921 9.65562 18.2066C9.65269 18.221 9.65302 18.2353 9.6528 18.2495ZM15.4203 17.0476C15.5026 17.0148 15.5845 16.9793 15.6658 16.9412C15.5983 16.9958 15.532 17.0519 15.4631 17.1051C15.4518 17.0838 15.437 17.0645 15.4203 17.0476ZM10.4527 3.71545C10.5379 3.71913 10.6226 3.72488 10.7073 3.73138C10.7071 3.73203 10.7068 3.73257 10.7066 3.73311C10.5207 3.74232 10.3351 3.75543 10.15 3.77342C10.2511 3.75511 10.3519 3.73528 10.4527 3.71545ZM3.24436 14.3178C3.20113 14.1709 3.15845 14.0236 3.11402 13.8772C3.18813 14.052 3.26603 14.2255 3.3461 14.3981C3.31262 14.3712 3.27839 14.3446 3.24436 14.3178ZM3.7069 5.65444C3.6744 5.67784 3.64092 5.69995 3.60755 5.72227C3.59346 5.71111 3.57916 5.70038 3.56269 5.6929C3.63745 5.62573 3.70972 5.55649 3.78242 5.48737C3.75555 5.54198 3.73085 5.59799 3.7069 5.65444ZM4.14928 12.9511C4.15091 12.8768 4.15102 12.8026 4.15297 12.7281C4.15914 12.7389 4.16359 12.7502 4.16987 12.7607C4.17269 12.7654 4.17637 12.7678 4.17962 12.7717C4.19739 12.894 4.21971 13.0153 4.2455 13.1354C4.21299 13.0743 4.18146 13.0125 4.14928 12.9511ZM5.32681 14.4577C4.3403 13.4289 4.52092 11.6096 4.60337 10.3141C4.68625 9.01354 4.89309 7.66028 4.68777 6.36054C4.7115 6.29694 4.74238 6.23952 4.77217 6.18112C4.91909 6.0148 5.05583 5.84101 5.17783 5.65715C6.06899 4.87228 7.72725 4.84617 8.78689 4.81052C10.2967 4.75981 11.9177 4.61224 13.4031 4.91898C15.2054 5.29115 15.546 6.9142 15.5254 8.53335C15.504 10.2089 15.5856 11.9615 15.1273 13.5882C14.5429 15.6619 12.3599 15.5977 10.5668 15.5732C9.62951 15.5604 8.69327 15.4834 7.76084 15.3925C6.85039 15.3039 5.98415 15.1434 5.32681 14.4577ZM8.12597 19.285C8.5326 19.3429 8.94052 19.3916 9.34954 19.4344C8.93413 19.4204 8.52544 19.3705 8.12597 19.285Z" fill="#FFD4E4"/>
</svg>
